<?xml version="1.0" standalone="no"?>
<!DOCTYPE svg PUBLIC "-//W3C//DTD SVG 20010904//EN"
 "http://www.w3.org/TR/2001/REC-SVG-20010904/DTD/svg10.dtd">
<svg version="1.0" xmlns="http://www.w3.org/2000/svg"
 width="980.000000pt" height="980.000000pt" viewBox="0 0 980.000000 980.000000"
 preserveAspectRatio="xMidYMid meet">

<g transform="translate(0.000000,980.000000) scale(0.100000,-0.100000)"
fill="#000000" stroke="none">
<path d="M4660 7314 c-144 -18 -312 -87 -417 -174 -123 -100 -220 -248 -265
-406 -30 -103 -32 -304 -5 -404 60 -218 210 -403 407 -504 138 -71 182 -81
360 -81 172 0 214 9 343 70 198 95 350 275 418 495 31 98 34 308 6 410 -23 87
-96 232 -151 302 -98 123 -274 235 -426 272 -69 16 -211 27 -270 20z m196
-348 c221 -59 370 -281 335 -503 -28 -178 -165 -333 -336 -377 -208 -55 -426
45 -520 238 -127 261 8 564 285 642 61 17 174 17 236 0z"/>
<path d="M3327 7263 c-4 -3 -7 -236 -7 -517 0 -568 -2 -592 -61 -652 -55 -57
-145 -63 -268 -19 -24 8 -45 14 -46 13 -7 -8 32 -319 40 -327 17 -17 184 -30
265 -21 137 15 225 56 302 138 57 61 84 112 109 209 18 71 19 115 19 630 l0
553 -173 0 c-96 0 -177 -3 -180 -7z"/>
<path d="M5830 6525 l0 -745 228 0 c415 0 566 35 693 160 76 75 102 143 103
265 0 106 -13 156 -57 221 -41 61 -89 99 -162 129 l-58 23 45 22 c66 31 119
80 153 141 28 50 30 62 30 154 0 87 -3 107 -26 156 -34 73 -83 120 -162 158
-103 49 -202 61 -513 61 l-274 0 0 -745z m578 463 c61 -30 85 -73 79 -146 -4
-63 -27 -98 -87 -131 -36 -20 -62 -25 -147 -29 l-103 -5 0 165 c0 91 3 168 8
172 4 5 51 6 105 3 75 -4 109 -11 145 -29z m22 -585 c64 -33 92 -79 93 -153 2
-96 -56 -167 -153 -189 -25 -6 -84 -11 -132 -11 l-88 0 0 190 0 190 113 0
c104 0 118 -2 167 -27z"/>
<path d="M3765 5665 c23 -158 120 -486 181 -612 32 -66 37 -72 53 -61 38 27
321 273 321 279 0 14 -90 -18 -188 -67 l-104 -52 -13 32 c-22 53 -246 520
-251 526 -3 3 -3 -17 1 -45z"/>
<path d="M5625 5523 c-49 -104 -108 -230 -132 -280 l-43 -93 -52 31 c-69 41
-235 105 -245 95 -3 -2 293 -258 328 -283 14 -11 20 -5 47 45 42 79 96 239
141 417 37 142 58 255 49 255 -3 0 -44 -84 -93 -187z"/>
<path d="M4594 5545 c-109 -20 -184 -44 -184 -60 0 -24 59 -174 115 -295 65
-140 70 -165 55 -277 -12 -93 -168 -1036 -220 -1333 -27 -152 -31 -193 -28
-315 3 -127 6 -146 30 -198 58 -125 271 -462 342 -542 l36 -40 35 39 c89 100
303 435 347 543 21 54 23 72 22 238 0 153 -5 200 -27 315 -61 303 -219 1287
-219 1365 -1 78 0 83 55 195 30 63 72 161 91 218 l36 103 -28 10 c-123 47
-311 61 -458 34z"/>
</g>
</svg>
